<?xml version="1.0" encoding="UTF-8"?>
<svg id="Covert_SMM" data-name="Covert SMM" xmlns="http://www.w3.org/2000/svg" viewBox="0 0 806.45 626">
  <defs>
    <style>
      .cls-1 {
        fill: #a29ed1;
        fill-rule: evenodd;
        stroke: #7e7f80;
        stroke-miterlimit: 10;
        stroke-width: .51px;
      }
    </style>
  </defs>
  <path id="Redbridge" class="cls-1" d="m502.33,127.01c-9.67-10.26-5.85-26.78,4.67-29.81,9.61,22.02,32.11,8.71,25.71,21.92,37.93,26.68,42.3-7.95,72.09-12.18,36.99-14.75,17.44,51.49,3.88,57.46,12.07,27.96-20.37,56.22-52.67,61.64-10.18-28.43-23.71-32.12-39.23-15.97-24.12-5.72-14.07-42.18-18.44-72.91.75-3.74,4.21-7.53,4-10.14h0Z"/>
  <path id="Haringey" class="cls-1" d="m347.5,191.92c-48.28-4.94-9.03-23.88-15.12-55.6,11.05,18.83,20.86-20.03,48.9-6.36,27.65-1.91,73.21-10.3,52.42,29.76-8.24,28.4-47.02,19.7-55.13,32.5-9.31-13.96-15.67-11.04-31.07-.29Z"/>
  <path id="Bromley" class="cls-1" d="m576.57,616.85c-25.75,6.94-39-.88-45.41-21.03-15.39,11.91-20.87,33.33-25.96-2.82.43-37.06-26.71-76.09-37.5-107.56-16.51.77-21.13-39.9-41.97-38.59-19.59-18.09-7.7-46.26,15.56-30.16,28.12-15.52,40.64,33.17,58.71-1.52,17.01-12.17,42.04-1,19.17-20.05-6.45-42.25,33.42,41.72,43.25,4.57,16.5,16.05,40.23,29.85,66.25,30.09,32.92,16.29,4.76,29.17,11.62,48.72-1.03,11.01-2.48,51.86-17.35,54.07-19.23,9.41-10,32.13-42.08,44.2-11.41,15.04,13.24,32.61-4.3,40.08Z"/>
  <path id="Brent" class="cls-1" d="m164.87,208.05c-3.74-23.98,28.94-43.08,44.93-45.03,4.7-34.76,36.45,7.12,34.82,32.33,9.22-33.81,83.08,76.09,38.73,55.49-20.32,7.86-49.66-7.21-73.79,5.73,23.98-23.28-26.92,7.98-19.34-16.75,3.88-15.78-36.77-19.39-25.34-31.77h0Z"/>
  <path id="Barking_and_Dagenham" data-name="Barking and Dagenham" class="cls-1" d="m584.48,274.47c1.16-23.14-54.98-37.03-21.96-49.85,33.57-6.67,57.16-39.91,47.81-68.19,36.8-46.48.24,30.81,31.6,38.62,41.8-18.03,22.36,33.65,4.22,55.52-3.68,50.75-27.11,4.61-61.67,23.9Z"/>
</svg>