<?xml version="1.0" encoding="UTF-8"?>
<svg id="Layer_1" data-name="Layer 1" xmlns="http://www.w3.org/2000/svg" xmlns:xlink="http://www.w3.org/1999/xlink" viewBox="0 0 1920 1080">
  <defs>
    <symbol id="Dummy_phone" data-name="Dummy phone" viewBox="0 0 452.26 934.45">
      <g>
        <rect x="2.5" y="2.5" width="447.26" height="929.45" rx="46.53" ry="46.53" style="fill: #d69ab7; stroke: #9f99cc; stroke-miterlimit: 10; stroke-width: 5px;"/>
        <path d="m36.18,36.43h380.95c4.97,0,9,4.03,9,9v503.5H26.13V46.48c0-5.55,4.5-10.05,10.05-10.05Z" style="fill: #e3e1e2;"/>
        <g>
          <circle cx="86.2" cy="166.57" r="41.07" style="fill: #a8d0df;"/>
          <g>
            <circle cx="67.72" cy="442.73" r="31.61" style="fill: #d4cde8;"/>
            <circle cx="148.01" cy="442.73" r="31.61" style="fill: #a49dd6;"/>
            <circle cx="225.61" cy="442.73" r="31.61" style="fill: #efd4e5;"/>
            <circle cx="306.86" cy="442.73" r="31.61" style="fill: #a8d0df;"/>
            <circle cx="384.54" cy="442.73" r="31.61" style="fill: #a4566b;"/>
          </g>
          <g>
            <rect x="26.13" y="548.93" width="134.85" height="135.71" style="fill: #d7abc2;"/>
            <rect x="291.28" y="684.64" width="134.85" height="135.71" style="fill: #d4cde8;"/>
            <rect x="159.41" y="684.64" width="134.85" height="135.71" style="fill: #efd4e5;"/>
            <rect x="26.13" y="684.64" width="134.85" height="135.71" style="fill: #dbd0d4;"/>
            <rect x="291.28" y="548.93" width="134.85" height="135.71" style="fill: #efd4e5;"/>
            <rect x="159.42" y="548.93" width="134.85" height="135.71" style="fill: #dbd0d4;"/>
          </g>
          <text transform="translate(45.13 243.84)" style="fill: #989898; font-family: AcuminVariableConcept, &apos;Acumin Variable Concept&apos;; font-size: 15px; font-variation-settings: &apos;wght&apos; 194, &apos;wdth&apos; 100, &apos;slnt&apos; 0;"><tspan x="0" y="0" style="letter-spacing: 0em;">B</tspan><tspan x="9.51" y="0" style="letter-spacing: 0em;">e</tspan><tspan x="17.13" y="0">x </tspan><tspan x="27.4" y="0" style="letter-spacing: 0em;">S</tspan><tspan x="36.25" y="0">ander</tspan><tspan x="0" y="18">I am a dum</tspan><tspan x="71.88" y="18" style="letter-spacing: 0em;">m</tspan><tspan x="84.25" y="18">y a</tspan><tspan x="102.6" y="18" style="letter-spacing: 0em;">cc</tspan><tspan x="117.27" y="18">ou</tspan><tspan x="133.27" y="18" style="letter-spacing: 0em;">n</tspan><tspan x="141.45" y="18">t </tspan><tspan x="149.68" y="18" style="letter-spacing: 0em;">t</tspan><tspan x="153.93" y="18">o </tspan><tspan x="165.76" y="18" style="letter-spacing: 0em;">m</tspan><tspan x="178.11" y="18">a</tspan><tspan x="185.73" y="18" style="letter-spacing: 0em;">k</tspan><tspan x="192.66" y="18">e an ani</tspan><tspan x="242.88" y="18" style="letter-spacing: 0em;">m</tspan><tspan x="255.22" y="18" style="letter-spacing: 0em;">a</tspan><tspan x="262.77" y="18">tion</tspan></text>
          <text transform="translate(45.13 102.76)" style="fill: #989898; font-family: AcuminConcept-ExtraCondBold, &apos;Acumin Variable Concept&apos;; font-size: 35px; font-variation-settings: &apos;wght&apos; 700, &apos;wdth&apos; 50, &apos;slnt&apos; 0; font-weight: 700;"><tspan x="0" y="0" style="letter-spacing: 0em;">u</tspan><tspan x="13.51" y="0" style="letter-spacing: 0em;">s</tspan><tspan x="24.99" y="0">er</tspan><tspan x="46.48" y="0" style="letter-spacing: 0em;">n</tspan><tspan x="59.92" y="0">ame</tspan></text>
          <g>
            <rect x="372.38" y="76.46" width="25" height="25" rx="3.4" ry="3.4" style="fill: none; opacity: .89; stroke: #989898; stroke-miterlimit: 10; stroke-width: 3px;"/>
            <line x1="384.56" y1="81.52" x2="384.48" y2="96.52" style="fill: none; opacity: .89; stroke: #989898; stroke-miterlimit: 10; stroke-width: 3px;"/>
            <line x1="377.02" y1="89.05" x2="392.02" y2="88.98" style="fill: none; opacity: .89; stroke: #989898; stroke-miterlimit: 10; stroke-width: 3px;"/>
          </g>
          <g>
            <path d="m26.13,807.86h400v70.59c0,5.78-4.69,10.48-10.48,10.48H36.46c-5.7,0-10.33-4.63-10.33-10.33v-70.73h0Z" style="fill: #e3e1e2;"/>
            <circle cx="383.95" cy="851.57" r="12.5" style="fill: none; opacity: .89; stroke: #989898; stroke-miterlimit: 10; stroke-width: 3px;"/>
            <path d="m55.36,863.07v-13.76l11.57-11.24,13.43,12.5v12.5h-9.72s1.88-8.74,0-10.61c-1.27-1.27-6.05-1.4-7.18,0-1.67,2.06,0,10.61,0,10.61h-8.1Z" style="fill: none; opacity: .89; stroke: #989898; stroke-miterlimit: 10; stroke-width: 3px;"/>
            <g>
              <rect x="292.99" y="839.07" width="25" height="25" rx="3.4" ry="3.4" style="fill: none; opacity: .89; stroke: #989898; stroke-miterlimit: 10; stroke-width: 3px;"/>
              <path d="m312.37,851.66c.42-3.44-11.86-10.4-12.01-6.93-.16,3.66-.35,10.42,0,13.87.4,3.99,11.59-3.49,12.01-6.93Z" style="fill: none; opacity: .89; stroke: #989898; stroke-miterlimit: 10; stroke-width: 3px;"/>
            </g>
            <line x1="153.78" y1="879.07" x2="297.99" y2="879.07" style="fill: #989898; opacity: .89; stroke: #989898; stroke-miterlimit: 10; stroke-width: 3px;"/>
            <g>
              <rect x="213.56" y="839.07" width="25" height="25" rx="3.4" ry="3.4" style="fill: none; opacity: .89; stroke: #989898; stroke-miterlimit: 10; stroke-width: 3px;"/>
              <rect x="224.67" y="844.45" width="3" height="15" rx="1.5" ry="1.5" style="fill: #989898;"/>
              <path d="m233.67,851.95h0c0,.83-.67,1.5-1.5,1.5h-12c-.83,0-1.5-.67-1.5-1.5h0c0-.83.67-1.5,1.5-1.5h12c.83,0,1.5.67,1.5,1.5Z" style="fill: #989898;"/>
            </g>
            <g>
              <g style="fill: none; opacity: .89;">
                <ellipse cx="144.57" cy="849.18" rx="10.47" ry="10.11" style="fill: none; stroke: #989898; stroke-miterlimit: 10; stroke-width: 3px;"/>
                <path d="m151.78,856.51" style="fill: none; stroke: #989898; stroke-miterlimit: 10; stroke-width: 3px;"/>
              </g>
              <path d="m157.69,862.87h0c-.59.59-1.54.59-2.12,0l-3.18-3.18c-.59-.59-.59-1.54,0-2.12h0c.59-.59,1.54-.59,2.12,0l3.18,3.18c.59.59.59,1.54,0,2.12Z" style="fill: #989898;"/>
            </g>
          </g>
        </g>
      </g>
    </symbol>
  </defs>
  <use width="452.26" height="934.45" transform="translate(734.87 83.93)" xlink:href="#Dummy_phone"/>
</svg>