<?xml version="1.0" encoding="UTF-8"?>
<svg id="Response_Map" data-name="Response Map" xmlns="http://www.w3.org/2000/svg" viewBox="0 0 806.45 626">
  <defs>
    <style>
      .cls-1 {
        fill: #a0dde3;
        fill-rule: evenodd;
        stroke: #7e7f80;
        stroke-miterlimit: 10;
        stroke-width: .51px;
      }
    </style>
  </defs>
  <path id="Westminster" class="cls-1" d="m369.44,307.3c-18.84,47.56-32.73-24.51-49.35-4.48-12.43-13.72-38.9-38.55-37.97-51.43,24.85,9.38,23.77-22.99,55.24-9.93-3.11,44.71,60.77,21.23,33.08,52.36-.61,4.48-.43,9.02-1.01,13.48Z"/>
  <path id="Waltham_Forest" data-name="Waltham Forest" class="cls-1" d="m502.33,127.01c-11.42,45.94,21.11,107.51-33.7,84.9-16.21-8.14-58.78-24.58-34.62-51.71,8.06-27.5,35.54-78.19,42.36-87.05,33.41-7.34,32.61,30.79,17.18,38.09,8.33,2.06,13.36,9.88,8.77,15.77h0Z"/>
  <path id="Richmond_upon_Thames" data-name="Richmond upon Thames" class="cls-1" d="m242.1,400.91c-23.49,40.86-47.96-5.21-51.39,17.37,15.36,49.75-21.39,62.9-47.61,22.93-37.62,16.42-26.96-15.56-28.58-25.4,44.88-25.05-21.33-20.99,14.11-44.76,35.83-2.2,40.98,8.78,56.16-25.13,19.24-63.14,56.93,39.43,64.32-22.06,22.96-19.29,29.22,27.93,14.08,26.74-27.46,5.18-22.09,21.11-11.18,43.49-2.88,2.19-7.75,5.07-9.92,6.83h0Z"/>
  <path id="Redbridge" class="cls-1" d="m502.33,127.01c-9.67-10.26-5.85-26.78,4.67-29.81,9.61,22.02,32.11,8.71,25.71,21.92,37.93,26.68,42.3-7.95,72.09-12.18,36.99-14.75,17.44,51.49,3.88,57.46,12.07,27.96-20.37,56.22-52.67,61.64-10.18-28.43-23.71-32.12-39.23-15.97-24.12-5.72-14.07-42.18-18.44-72.91.75-3.74,4.21-7.53,4-10.14h0Z"/>
  <path id="Merton" class="cls-1" d="m362.4,468.54c-32.49,4.53-52.73,2.43-76.39,10.8-33.8,14.15-32.41-38.11-41.33-66.75,18.04-21.36,66.62-22.34,66.45-7.67,7.7,27.41,49.93,12.61,42.89,29.35,10.33-7.48,23.37,24.94,8.38,34.27Z"/>
  <path id="Lambeth" class="cls-1" d="m415.63,421.04c-24.35-12.09-43.01,11-57.9,15.07-14.82-7.17,12.33-44.46-7.8-56.81-13.68-32.9,25.49-49.28,23.97-93.76,23.66,8.69.93,52.07,28.42,65.68-19.78,23.23,2.68,51.99,13.3,69.81Z"/>
  <path id="Kingston_upon_Thames" data-name="Kingston upon Thames" class="cls-1" d="m173.73,569.36c-4.97-39.36,30.45-78.88,11.32-101.97,21.02-24.39-10.11-75.65,21.4-51.39,7.49,21.48,46.68-41.89,41.55,7.78,2.13,29.84,26.77,64.69-10.98,70.4-32.59,14.74-29.09,78.06-63.29,75.18h0Z"/>
  <path id="Kensington_and_Chelsea" data-name="Kensington and Chelsea" class="cls-1" d="m303.94,326.63c-19.25-21.49-43.52-55.58-31.55-70.9,31.74,10.81,34.19,52.58,64.66,47.39,18.46,16.18-22.02,41.77-33.11,23.51h0Z"/>
  <path id="Islington" class="cls-1" d="m351.86,210.86c-9.85-51.48,43.08-13.36,53.65,5.95,3.19,14.5-12.43,37.98-3.94,50.74-29.17,1.98-27-22.53-49.71-56.69Z"/>
  <path id="Haringey" class="cls-1" d="m347.5,191.92c-48.28-4.94-9.03-23.88-15.12-55.6,11.05,18.83,20.86-20.03,48.9-6.36,27.65-1.91,73.21-10.3,52.42,29.76-8.24,28.4-47.02,19.7-55.13,32.5-9.31-13.96-15.67-11.04-31.07-.29Z"/>
  <path id="Hackney" class="cls-1" d="m390.64,183.76c26.03-10.7,38.62,1.01,54.65,17.53,36.33,2.02,22.77,32.94-1.12,38.94-30.16-1.09-38.12,45.77-47.73,4.5,42.8-25.4-22.93-33.74-5.81-60.97Z"/>
  <path id="Enfield" class="cls-1" d="m377.99.3c32.23,10.16,70.08,8.53,92.63,22.38,3.71,36.39-3.8,89.81-29.67,109.27-30.22-13.74-110.34,18.69-87.1-29.24-2.92-18.86-16.53-40.9-38.98-51.08-22.88-20.84,14.84-52.9,50.1-46.41,4.26-.94,8.17-5.5,13.02-4.92h0Z"/>
  <path id="Ealing" class="cls-1" d="m163.2,309.69c-31.62-6.35-32.38,15.51-61.28-.73-15.56-11.39,52.47-57.16-5.03-54.81-41.87-13.53,26.53-28.43,43.09-40.17,34.48-11.01,50.41,32.64,58.06,35.89,31.47-16.52-.69,22.28,33.67,1.52,24.7-17.06,12.06,38.41,12.99,43.28-.65,23.02-23.91,10.02-41.35,5.73-12.55,17.73-15.07,11.68-40.15,9.28h0Z"/>
  <path id="Camden" class="cls-1" d="m347.5,191.92c8.94,38.21,60.27,98.37,10.31,79.83-14.52-26.62-34.91-35.41-58.82-30.65-34.09-27.71-1.95-31.26,15.45-49.82,6.33-5.92,21.97-6.28,33.06.64Z"/>
  <path id="Bromley" class="cls-1" d="m576.57,616.85c-25.75,6.94-39-.88-45.41-21.03-15.39,11.91-20.87,33.33-25.96-2.82.43-37.06-26.71-76.09-37.5-107.56-16.51.77-21.13-39.9-41.97-38.59-19.59-18.09-7.7-46.26,15.56-30.16,28.12-15.52,40.64,33.17,58.71-1.52,17.01-12.17,42.04-1,19.17-20.05-6.45-42.25,33.42,41.72,43.25,4.57,16.5,16.05,40.23,29.85,66.25,30.09,32.92,16.29,4.76,29.17,11.62,48.72-1.03,11.01-2.48,51.86-17.35,54.07-19.23,9.41-10,32.13-42.08,44.2-11.41,15.04,13.24,32.61-4.3,40.08Z"/>
  <path id="Brent" class="cls-1" d="m164.87,208.05c-3.74-23.98,28.94-43.08,44.93-45.03,4.7-34.76,36.45,7.12,34.82,32.33,9.22-33.81,83.08,76.09,38.73,55.49-20.32,7.86-49.66-7.21-73.79,5.73,23.98-23.28-26.92,7.98-19.34-16.75,3.88-15.78-36.77-19.39-25.34-31.77h0Z"/>
  <path id="Bexley" class="cls-1" d="m607.48,427.15c-38.86-7.69-47.47-38.14-32.78-57.24-26.02-36.21,33.36-34.76,32.83-49.97-26.86-55.54,31.61-65.7,52.81-22.61,14.72,30.7,54.12,5.64,34.34,40.85-3.84,33.43-39.2,37.13-48.28,62.38-13.88,15.82,3.28,43.26-33.92,24.66-1.54.92-3.25,1.56-5,1.93Z"/>
  <path id="Barnet" class="cls-1" d="m240.71,59.4c41.36-5.76,45.99-35.83,74.16-7.77,21.47,11.91,40.31,31.71,38.28,54.53-12.61,19.89-3.54,46.21-22.74,34.93,5.92,33.61-20.28,56.04-44.2,72.15-18.61-13.87-34.31-30.13-44.96-22.06,10.69-34.11-52.21-72.35-48.59-99.1,23.82-7.68,48.3-8.65,48.06-32.68Z"/>
  <path id="Barking_and_Dagenham" data-name="Barking and Dagenham" class="cls-1" d="m584.48,274.47c1.16-23.14-54.98-37.03-21.96-49.85,33.57-6.67,57.16-39.91,47.81-68.19,36.8-46.48.24,30.81,31.6,38.62,41.8-18.03,22.36,33.65,4.22,55.52-3.68,50.75-27.11,4.61-61.67,23.9Z"/>
</svg>